#!OML:ASF X:\für Bonn\!DataBase\2005_08_10_Bjorn_Final\c3d\bjorn.ASF
:FULLY-SPECIFIED
:DEGREES
229
root -9.09089 17.6599 10.2018 172.661 54.9203 -543.973
lowerback 3.28471 -4.71592 5.66155
upperback 17.6695 -4.91236 0.551686
thorax 17.6583 -0.74076 -2.76459
lowerneck 10.4916 4.14798 4.63486
upperneck -10.5583 5.16899 -10.3333
head -4.46995 3.06884 -4.31174
rclavicle -1.23246e-014 2.22639e-014
rhumerus -14.9169 -16.2698 -86.8689
rradius 72.2198
rwrist 3.55162
rhand -28.7136 20.2621
rfingers 7.12502
rthumb -2.07506 -9.70759
lclavicle -1.23246e-014 2.22639e-014
lhumerus -7.78363 -8.15645 86.6162
lradius 62.1073
lwrist -18.2623
lhand -48.8975 -19.9126
lfingers 7.12502
lthumb -21.5306 8.91067
rfemur -34.0399 -8.24607 7.76305
rtibia 50.722
rfoot -4.73498 19.5894
rtoes -7.57076
lfemur 14.8278 9.31384 -11.3775
ltibia 37.1157
lfoot -15.1583 7.95858
ltoes -7.34246
230
root -8.96939 17.6587 10.1957 172.628 54.7842 -544.059
lowerback 3.51666 -4.78256 5.80449
upperback 17.6938 -4.97546 0.55377
thorax 17.5204 -0.748854 -2.82959
lowerneck 10.3291 4.29802 4.39465
upperneck -10.5602 5.32482 -10.4498
head -4.4347 3.16201 -4.31217
rclavicle 1.82882e-014 -1.19271e-014
rhumerus -14.9833 -16.3626 -86.9458
rradius 72.0906
rwrist 3.36928
rhand -28.7192 20.3357
rfingers 7.12502
rthumb -2.08048 -9.63388
lclavicle 1.82882e-014 -1.19271e-014
lhumerus -8.00529 -8.0621 86.4588
lradius 61.9245
lwrist -18.4197
lhand -48.7558 -19.9439
lfingers 7.12502
lthumb -21.3945 8.89489
rfemur -33.8866 -8.10595 7.86153
rtibia 51.1589
rfoot -5.6089 19.5842
rtoes -7.64706
lfemur 14.8098 8.96676 -11.188
ltibia 37.4884
lfoot -14.4752 7.80468
ltoes -7.9399
231
root -8.84927 17.6554 10.1899 172.615 54.6361 -544.107
lowerback 3.75494 -4.85084 5.95179
upperback 17.7303 -5.03739 0.563983
thorax 17.396 -0.754665 -2.88644
lowerneck 10.0407 4.44596 4.13196
upperneck -10.4881 5.48124 -10.544
head -4.35733 3.251 -4.29513
rclavicle 4.77083e-015 -6.36111e-015
rhumerus -15.0295 -16.4588 -87.0184
rradius 71.9583
rwrist 3.25901
rhand -28.7676 20.4264
rfingers 7.12502
rthumb -2.12724 -9.54276
lclavicle 4.77083e-015 -6.36111e-015
lhumerus -8.18749 -7.92703 86.3232
lradius 61.7222
lwrist -18.7004
lhand -48.6719 -19.8615
lfingers 7.12502
lthumb -21.3139 8.9864
rfemur -33.7303 -7.97605 7.98688
rtibia 51.6029
rfoot -6.49479 19.5669
rtoes -7.97947
lfemur 14.7513 8.62135 -10.957
ltibia 37.9265
lfoot -13.7312 7.57994
ltoes -8.12537
232
root -8.72915 17.6557 10.1829 172.619 54.4837 -544.156
lowerback 3.95307 -4.91963 6.09047
upperback 17.7668 -5.10384 0.576612
thorax 17.2989 -0.763521 -2.93855
lowerneck 9.64494 4.60399 3.83006
upperneck -10.3215 5.65594 -10.6064
head -4.23436 3.34396 -4.25564
rclavicle -5.48646e-014 1.43125e-014
rhumerus -15.0714 -16.5447 -87.0773
rradius 71.816
rwrist 3.13444
rhand -28.7883 20.5134
rfingers 7.12502
rthumb -2.14726 -9.45555
lclavicle -5.48646e-014 1.43125e-014
lhumerus -8.3786 -7.75097 86.203
lradius 61.5195
lwrist -18.9673
lhand -48.5821 -19.6775
lfingers 7.12502
lthumb -21.2277 9.18013
rfemur -33.5909 -7.87604 8.11634
rtibia 52.0324
rfoot -7.37329 19.5213
rtoes -8.38635
lfemur 14.6149 8.24662 -10.7574
ltibia 38.4546
lfoot -12.979 7.39715
ltoes -8.12265
233
root -8.60931 17.6542 10.1768 172.614 54.3379 -544.17
lowerback 4.17873 -4.98592 6.22656
upperback 17.7977 -5.16424 0.599002
thorax 17.1782 -0.772271 -2.97536
lowerneck 9.37404 4.74568 3.50244
upperneck -10.2146 5.80641 -10.6568
head -4.15422 3.42853 -4.2129
rclavicle 3.89618e-014 -4.45278e-014
rhumerus -15.1666 -16.6018 -87.0768
rradius 71.6862
rwrist 3.01191
rhand -28.8387 20.5671
rfingers 7.12502
rthumb -2.19591 -9.40133
lclavicle 3.89618e-014 -4.45278e-014
lhumerus -8.61744 -7.5618 86.1043
lradius 61.3347
lwrist -19.2533
lhand -48.5362 -19.4854
lfingers 7.12502
lthumb -21.1836 9.37715
rfemur -33.3982 -7.75023 8.26751
rtibia 52.4409
rfoot -8.19828 19.4362
rtoes -8.71031
lfemur 14.4592 7.86502 -10.5237
ltibia 39.0862
lfoot -12.243 7.18515
ltoes -7.78087
234
root -8.49087 17.6576 10.173 172.619 54.1799 -544.187
lowerback 4.3828 -5.04455 6.34633
upperback 17.8433 -5.21121 0.609846
thorax 17.0932 -0.772946 -3.01634
lowerneck 9.03637 4.88344 3.23677
upperneck -10.0798 5.96428 -10.7015
head -4.05242 3.51142 -4.17515
rclavicle -2.62396e-014 7.23576e-014
rhumerus -15.2024 -16.7381 -87.1282
rradius 71.5292
rwrist 2.98253
rhand -28.8462 20.6868
rfingers 7.12502
rthumb -2.20316 -9.28155
lclavicle -2.62396e-014 7.23576e-014
lhumerus -8.81011 -7.381 85.9678
lradius 61.145
lwrist -19.5393
lhand -48.5288 -19.3273
lfingers 7.12502
lthumb -21.1765 9.53605
rfemur -33.1989 -7.6213 8.42814
rtibia 52.7985
rfoot -8.99138 19.2857
rtoes -9.18642
lfemur 14.1776 7.52532 -10.2916
ltibia 39.8306
lfoot -11.3867 7.07271
ltoes -7.87774
235
root -8.37188 17.6656 10.1712 172.606 54.0306 -544.236
lowerback 4.57543 -5.09191 6.39255
upperback 17.8668 -5.24577 0.631833
thorax 16.9938 -0.783202 -3.00483
lowerneck 8.84389 5.01095 2.95956
upperneck -10.0318 6.10212 -10.7622
head -4.00313 3.59078 -4.14721
rclavicle -5.56597e-015 -1.145e-013
rhumerus -15.3068 -16.8181 -87.104
rradius 71.4079
rwrist 2.90941
rhand -28.8528 20.7224
rfingers 7.12502
rthumb -2.20953 -9.24589
lclavicle -5.56597e-015 -1.145e-013
lhumerus -9.08077 -7.20077 85.8349
lradius 60.993
lwrist -19.7226
lhand -48.5838 -19.1648
lfingers 7.12502
lthumb -21.2293 9.69266
rfemur -32.9798 -7.43759 8.57556
rtibia 53.1057
rfoot -9.77751 19.0807
rtoes -9.67509
lfemur 13.7947 7.22958 -10.0774
ltibia 40.6824
lfoot -10.4272 7.03169
ltoes -8.71009
